<mxfile modified="2021-09-15T10:08:27.465Z" host="app.diagrams.net" agent="5.0 (Macintosh)" etag="K18ryTal4ONjOOIxaVf9" version="15.2.7" type="github">
  <diagram id="nFkIb_0lraF-PDWOpgHU" name="Page-1">
    <mxGraphModel dx="794" dy="661" grid="1" gridSize="10" guides="1" tooltips="1" connect="1" arrows="1" fold="1" page="1" pageScale="1" pageWidth="480" pageHeight="760" math="1" shadow="0">
      <root>
        <mxCell id="0" />
        <mxCell id="1" parent="0" />
        <mxCell id="qD7VDa8J_AhCRNE9viBT-6" value="DQ_Kinematics" style="swimlane;fontStyle=2;childLayout=stackLayout;horizontal=1;startSize=26;horizontalStack=0;resizeParent=1;resizeParentMax=0;resizeLast=0;collapsible=1;marginBottom=0;fillColor=#d5e8d4;strokeColor=#82b366;swimlaneFillColor=none;" parent="1" vertex="1">
          <mxGeometry x="9" y="302" width="190" height="260" as="geometry">
            <mxRectangle x="350" y="34" width="120" height="26" as="alternateBounds" />
          </mxGeometry>
        </mxCell>
        <mxCell id="qD7VDa8J_AhCRNE9viBT-7" value="+ fkm()" style="text;strokeColor=none;fillColor=none;align=left;verticalAlign=top;spacingLeft=4;spacingRight=4;overflow=hidden;rotatable=0;points=[[0,0.5],[1,0.5]];portConstraint=eastwest;fontStyle=2" parent="qD7VDa8J_AhCRNE9viBT-6" vertex="1">
          <mxGeometry y="26" width="190" height="26" as="geometry" />
        </mxCell>
        <mxCell id="qD7VDa8J_AhCRNE9viBT-8" value="+ pose_jacobian()" style="text;strokeColor=none;fillColor=none;align=left;verticalAlign=top;spacingLeft=4;spacingRight=4;overflow=hidden;rotatable=0;points=[[0,0.5],[1,0.5]];portConstraint=eastwest;fontStyle=2" parent="qD7VDa8J_AhCRNE9viBT-6" vertex="1">
          <mxGeometry y="52" width="190" height="26" as="geometry" />
        </mxCell>
        <mxCell id="qD7VDa8J_AhCRNE9viBT-9" value="+ set_base_frame()" style="text;strokeColor=none;fillColor=none;align=left;verticalAlign=top;spacingLeft=4;spacingRight=4;overflow=hidden;rotatable=0;points=[[0,0.5],[1,0.5]];portConstraint=eastwest;" parent="qD7VDa8J_AhCRNE9viBT-6" vertex="1">
          <mxGeometry y="78" width="190" height="26" as="geometry" />
        </mxCell>
        <mxCell id="qD7VDa8J_AhCRNE9viBT-10" value="+ set_reference_frame()" style="text;strokeColor=none;fillColor=none;align=left;verticalAlign=top;spacingLeft=4;spacingRight=4;overflow=hidden;rotatable=0;points=[[0,0.5],[1,0.5]];portConstraint=eastwest;" parent="qD7VDa8J_AhCRNE9viBT-6" vertex="1">
          <mxGeometry y="104" width="190" height="26" as="geometry" />
        </mxCell>
        <mxCell id="qD7VDa8J_AhCRNE9viBT-13" value="+ line_jacobian()&#xa;" style="text;strokeColor=none;fillColor=none;align=left;verticalAlign=top;spacingLeft=4;spacingRight=4;overflow=hidden;rotatable=0;points=[[0,0.5],[1,0.5]];portConstraint=eastwest;fontStyle=4" parent="qD7VDa8J_AhCRNE9viBT-6" vertex="1">
          <mxGeometry y="130" width="190" height="26" as="geometry" />
        </mxCell>
        <mxCell id="qD7VDa8J_AhCRNE9viBT-14" value="+ plane_jacobian()" style="text;strokeColor=none;fillColor=none;align=left;verticalAlign=top;spacingLeft=4;spacingRight=4;overflow=hidden;rotatable=0;points=[[0,0.5],[1,0.5]];portConstraint=eastwest;fontStyle=4" parent="qD7VDa8J_AhCRNE9viBT-6" vertex="1">
          <mxGeometry y="156" width="190" height="26" as="geometry" />
        </mxCell>
        <mxCell id="qD7VDa8J_AhCRNE9viBT-15" value="+ prim_dist_jacobian()" style="text;strokeColor=none;fillColor=none;align=left;verticalAlign=top;spacingLeft=4;spacingRight=4;overflow=hidden;rotatable=0;points=[[0,0.5],[1,0.5]];portConstraint=eastwest;fontStyle=4;labelBackgroundColor=#CCCCCC;" parent="qD7VDa8J_AhCRNE9viBT-6" vertex="1">
          <mxGeometry y="182" width="190" height="26" as="geometry" />
        </mxCell>
        <mxCell id="qD7VDa8J_AhCRNE9viBT-11" value="+ rotation_jacobian()" style="text;strokeColor=none;fillColor=none;align=left;verticalAlign=top;spacingLeft=4;spacingRight=4;overflow=hidden;rotatable=0;points=[[0,0.5],[1,0.5]];portConstraint=eastwest;fontStyle=4" parent="qD7VDa8J_AhCRNE9viBT-6" vertex="1">
          <mxGeometry y="208" width="190" height="26" as="geometry" />
        </mxCell>
        <mxCell id="qD7VDa8J_AhCRNE9viBT-12" value="+ translation_jacobian()" style="text;strokeColor=none;fillColor=none;align=left;verticalAlign=top;spacingLeft=4;spacingRight=4;overflow=hidden;rotatable=0;points=[[0,0.5],[1,0.5]];portConstraint=eastwest;fontStyle=4" parent="qD7VDa8J_AhCRNE9viBT-6" vertex="1">
          <mxGeometry y="234" width="190" height="26" as="geometry" />
        </mxCell>
        <mxCell id="qD7VDa8J_AhCRNE9viBT-16" value="DQ_SerialManipulator" style="swimlane;fontStyle=0;childLayout=stackLayout;horizontal=1;startSize=26;fillColor=#dae8fc;horizontalStack=0;resizeParent=1;resizeParentMax=0;resizeLast=0;collapsible=1;marginBottom=0;labelBackgroundColor=none;strokeColor=#6c8ebf;" parent="1" vertex="1">
          <mxGeometry x="9" y="622" width="170" height="130" as="geometry" />
        </mxCell>
        <mxCell id="qD7VDa8J_AhCRNE9viBT-17" value="+ fkm()" style="text;strokeColor=none;fillColor=none;align=left;verticalAlign=top;spacingLeft=4;spacingRight=4;overflow=hidden;rotatable=0;points=[[0,0.5],[1,0.5]];portConstraint=eastwest;" parent="qD7VDa8J_AhCRNE9viBT-16" vertex="1">
          <mxGeometry y="26" width="170" height="26" as="geometry" />
        </mxCell>
        <mxCell id="qD7VDa8J_AhCRNE9viBT-18" value="+ pose_jacobian()" style="text;strokeColor=none;fillColor=none;align=left;verticalAlign=top;spacingLeft=4;spacingRight=4;overflow=hidden;rotatable=0;points=[[0,0.5],[1,0.5]];portConstraint=eastwest;" parent="qD7VDa8J_AhCRNE9viBT-16" vertex="1">
          <mxGeometry y="52" width="170" height="26" as="geometry" />
        </mxCell>
        <mxCell id="qD7VDa8J_AhCRNE9viBT-19" value="+ pose_jacobian_derivative()" style="text;strokeColor=none;fillColor=none;align=left;verticalAlign=top;spacingLeft=4;spacingRight=4;overflow=hidden;rotatable=0;points=[[0,0.5],[1,0.5]];portConstraint=eastwest;" parent="qD7VDa8J_AhCRNE9viBT-16" vertex="1">
          <mxGeometry y="78" width="170" height="26" as="geometry" />
        </mxCell>
        <mxCell id="qD7VDa8J_AhCRNE9viBT-22" value="+ set_effector()" style="text;strokeColor=none;fillColor=none;align=left;verticalAlign=top;spacingLeft=4;spacingRight=4;overflow=hidden;rotatable=0;points=[[0,0.5],[1,0.5]];portConstraint=eastwest;labelBackgroundColor=none;" parent="qD7VDa8J_AhCRNE9viBT-16" vertex="1">
          <mxGeometry y="104" width="170" height="26" as="geometry" />
        </mxCell>
        <mxCell id="qD7VDa8J_AhCRNE9viBT-24" value="DQ_MobileBase" style="swimlane;fontStyle=2;childLayout=stackLayout;horizontal=1;startSize=26;fillColor=none;horizontalStack=0;resizeParent=1;resizeParentMax=0;resizeLast=0;collapsible=1;marginBottom=0;labelBackgroundColor=none;" parent="1" vertex="1">
          <mxGeometry x="285" y="370" width="180" height="104" as="geometry" />
        </mxCell>
        <mxCell id="qD7VDa8J_AhCRNE9viBT-44" value="+ fkm()" style="text;strokeColor=none;fillColor=none;align=left;verticalAlign=top;spacingLeft=4;spacingRight=4;overflow=hidden;rotatable=0;points=[[0,0.5],[1,0.5]];portConstraint=eastwest;fontStyle=2" parent="qD7VDa8J_AhCRNE9viBT-24" vertex="1">
          <mxGeometry y="26" width="180" height="26" as="geometry" />
        </mxCell>
        <mxCell id="qD7VDa8J_AhCRNE9viBT-45" value="+ pose_jacobian()" style="text;strokeColor=none;fillColor=none;align=left;verticalAlign=top;spacingLeft=4;spacingRight=4;overflow=hidden;rotatable=0;points=[[0,0.5],[1,0.5]];portConstraint=eastwest;fontStyle=2" parent="qD7VDa8J_AhCRNE9viBT-24" vertex="1">
          <mxGeometry y="52" width="180" height="26" as="geometry" />
        </mxCell>
        <mxCell id="qD7VDa8J_AhCRNE9viBT-25" value="+ set_frame_displacement()" style="text;strokeColor=none;fillColor=none;align=left;verticalAlign=top;spacingLeft=4;spacingRight=4;overflow=hidden;rotatable=0;points=[[0,0.5],[1,0.5]];portConstraint=eastwest;" parent="qD7VDa8J_AhCRNE9viBT-24" vertex="1">
          <mxGeometry y="78" width="180" height="26" as="geometry" />
        </mxCell>
        <mxCell id="qD7VDa8J_AhCRNE9viBT-29" value="DQ_HolonomicBase" style="swimlane;fontStyle=0;childLayout=stackLayout;horizontal=1;startSize=26;fillColor=none;horizontalStack=0;resizeParent=1;resizeParentMax=0;resizeLast=0;collapsible=1;marginBottom=0;labelBackgroundColor=none;" parent="1" vertex="1">
          <mxGeometry x="325" y="176.5" width="140" height="104" as="geometry" />
        </mxCell>
        <mxCell id="qD7VDa8J_AhCRNE9viBT-30" value="+ fkm()" style="text;strokeColor=none;fillColor=none;align=left;verticalAlign=top;spacingLeft=4;spacingRight=4;overflow=hidden;rotatable=0;points=[[0,0.5],[1,0.5]];portConstraint=eastwest;" parent="qD7VDa8J_AhCRNE9viBT-29" vertex="1">
          <mxGeometry y="26" width="140" height="26" as="geometry" />
        </mxCell>
        <mxCell id="qD7VDa8J_AhCRNE9viBT-31" value="+ pose_jacobian()" style="text;strokeColor=none;fillColor=none;align=left;verticalAlign=top;spacingLeft=4;spacingRight=4;overflow=hidden;rotatable=0;points=[[0,0.5],[1,0.5]];portConstraint=eastwest;" parent="qD7VDa8J_AhCRNE9viBT-29" vertex="1">
          <mxGeometry y="52" width="140" height="26" as="geometry" />
        </mxCell>
        <mxCell id="qD7VDa8J_AhCRNE9viBT-32" value="+ set_base_diameter()" style="text;strokeColor=none;fillColor=none;align=left;verticalAlign=top;spacingLeft=4;spacingRight=4;overflow=hidden;rotatable=0;points=[[0,0.5],[1,0.5]];portConstraint=eastwest;" parent="qD7VDa8J_AhCRNE9viBT-29" vertex="1">
          <mxGeometry y="78" width="140" height="26" as="geometry" />
        </mxCell>
        <mxCell id="qD7VDa8J_AhCRNE9viBT-35" value="DQ_DifferentialDriveRobot" style="swimlane;fontStyle=0;childLayout=stackLayout;horizontal=1;startSize=26;fillColor=none;horizontalStack=0;resizeParent=1;resizeParentMax=0;resizeLast=0;collapsible=1;marginBottom=0;labelBackgroundColor=none;" parent="1" vertex="1">
          <mxGeometry x="297" y="9.5" width="168" height="78" as="geometry" />
        </mxCell>
        <mxCell id="qD7VDa8J_AhCRNE9viBT-51" value="+ constraint_jacobian()" style="text;strokeColor=none;fillColor=none;align=left;verticalAlign=top;spacingLeft=4;spacingRight=4;overflow=hidden;rotatable=0;points=[[0,0.5],[1,0.5]];portConstraint=eastwest;" parent="qD7VDa8J_AhCRNE9viBT-35" vertex="1">
          <mxGeometry y="26" width="168" height="26" as="geometry" />
        </mxCell>
        <mxCell id="qD7VDa8J_AhCRNE9viBT-52" value="+ pose_jacobian()" style="text;strokeColor=none;fillColor=none;align=left;verticalAlign=top;spacingLeft=4;spacingRight=4;overflow=hidden;rotatable=0;points=[[0,0.5],[1,0.5]];portConstraint=eastwest;" parent="qD7VDa8J_AhCRNE9viBT-35" vertex="1">
          <mxGeometry y="52" width="168" height="26" as="geometry" />
        </mxCell>
        <mxCell id="qD7VDa8J_AhCRNE9viBT-69" value="" style="endArrow=block;endSize=16;endFill=0;html=1;strokeWidth=1;exitX=0.5;exitY=0;exitDx=0;exitDy=0;edgeStyle=elbowEdgeStyle;" parent="1" source="qD7VDa8J_AhCRNE9viBT-16" target="qD7VDa8J_AhCRNE9viBT-6" edge="1">
          <mxGeometry width="160" relative="1" as="geometry">
            <mxPoint x="-221" y="691.5" as="sourcePoint" />
            <mxPoint x="114" y="366" as="targetPoint" />
          </mxGeometry>
        </mxCell>
        <mxCell id="qD7VDa8J_AhCRNE9viBT-70" value="" style="endArrow=block;endSize=16;endFill=0;html=1;strokeWidth=1;edgeStyle=elbowEdgeStyle;" parent="1" source="qD7VDa8J_AhCRNE9viBT-29" target="qD7VDa8J_AhCRNE9viBT-24" edge="1">
          <mxGeometry width="160" relative="1" as="geometry">
            <mxPoint x="-171" y="968.5" as="sourcePoint" />
            <mxPoint x="381" y="548.5" as="targetPoint" />
          </mxGeometry>
        </mxCell>
        <mxCell id="qD7VDa8J_AhCRNE9viBT-71" value="" style="endArrow=block;endSize=16;endFill=0;html=1;strokeWidth=1;edgeStyle=elbowEdgeStyle;" parent="1" source="qD7VDa8J_AhCRNE9viBT-35" target="qD7VDa8J_AhCRNE9viBT-29" edge="1">
          <mxGeometry width="160" relative="1" as="geometry">
            <mxPoint x="-171" y="968.5" as="sourcePoint" />
            <mxPoint x="-11" y="968.5" as="targetPoint" />
          </mxGeometry>
        </mxCell>
        <mxCell id="qD7VDa8J_AhCRNE9viBT-72" value="" style="endArrow=block;endSize=16;endFill=0;html=1;strokeWidth=1;edgeStyle=elbowEdgeStyle;elbow=vertical;" parent="1" source="qD7VDa8J_AhCRNE9viBT-24" target="qD7VDa8J_AhCRNE9viBT-6" edge="1">
          <mxGeometry width="160" relative="1" as="geometry">
            <mxPoint x="-171" y="936" as="sourcePoint" />
            <mxPoint x="-11" y="936" as="targetPoint" />
          </mxGeometry>
        </mxCell>
        <mxCell id="qD7VDa8J_AhCRNE9viBT-88" value="" style="endArrow=diamondThin;endFill=0;endSize=24;html=1;strokeWidth=1;snapToPoint=0;edgeStyle=elbowEdgeStyle;" parent="1" source="qD7VDa8J_AhCRNE9viBT-6" target="qD7VDa8J_AhCRNE9viBT-54" edge="1">
          <mxGeometry x="0.6623" y="-10" width="160" relative="1" as="geometry">
            <mxPoint x="239" y="256" as="sourcePoint" />
            <mxPoint x="393" y="230" as="targetPoint" />
            <mxPoint as="offset" />
          </mxGeometry>
        </mxCell>
        <mxCell id="qD7VDa8J_AhCRNE9viBT-97" value="1" style="text;html=1;resizable=0;points=[];autosize=1;align=left;verticalAlign=top;spacingTop=-4;" parent="1" vertex="1">
          <mxGeometry x="114" y="247.5" width="20" height="20" as="geometry" />
        </mxCell>
        <mxCell id="qD7VDa8J_AhCRNE9viBT-102" value="DQ_WholeBody" style="swimlane;fontStyle=0;childLayout=stackLayout;horizontal=1;startSize=26;fillColor=none;horizontalStack=0;resizeParent=1;resizeParentMax=0;resizeLast=0;collapsible=1;marginBottom=0;labelBackgroundColor=none;" parent="1" vertex="1">
          <mxGeometry x="325" y="570" width="140" height="182" as="geometry" />
        </mxCell>
        <mxCell id="qD7VDa8J_AhCRNE9viBT-103" value="+ add()" style="text;strokeColor=none;fillColor=none;align=left;verticalAlign=top;spacingLeft=4;spacingRight=4;overflow=hidden;rotatable=0;points=[[0,0.5],[1,0.5]];portConstraint=eastwest;" parent="qD7VDa8J_AhCRNE9viBT-102" vertex="1">
          <mxGeometry y="26" width="140" height="26" as="geometry" />
        </mxCell>
        <mxCell id="qD7VDa8J_AhCRNE9viBT-104" value="+ add_reversed()" style="text;strokeColor=none;fillColor=none;align=left;verticalAlign=top;spacingLeft=4;spacingRight=4;overflow=hidden;rotatable=0;points=[[0,0.5],[1,0.5]];portConstraint=eastwest;" parent="qD7VDa8J_AhCRNE9viBT-102" vertex="1">
          <mxGeometry y="52" width="140" height="26" as="geometry" />
        </mxCell>
        <mxCell id="qD7VDa8J_AhCRNE9viBT-105" value="+ fkm()" style="text;strokeColor=none;fillColor=none;align=left;verticalAlign=top;spacingLeft=4;spacingRight=4;overflow=hidden;rotatable=0;points=[[0,0.5],[1,0.5]];portConstraint=eastwest;" parent="qD7VDa8J_AhCRNE9viBT-102" vertex="1">
          <mxGeometry y="78" width="140" height="26" as="geometry" />
        </mxCell>
        <mxCell id="qD7VDa8J_AhCRNE9viBT-107" value="+ get_chain()" style="text;strokeColor=none;fillColor=none;align=left;verticalAlign=top;spacingLeft=4;spacingRight=4;overflow=hidden;rotatable=0;points=[[0,0.5],[1,0.5]];portConstraint=eastwest;labelBackgroundColor=none;" parent="qD7VDa8J_AhCRNE9viBT-102" vertex="1">
          <mxGeometry y="104" width="140" height="26" as="geometry" />
        </mxCell>
        <mxCell id="qD7VDa8J_AhCRNE9viBT-109" value="+ pose_jacobian()" style="text;strokeColor=none;fillColor=none;align=left;verticalAlign=top;spacingLeft=4;spacingRight=4;overflow=hidden;rotatable=0;points=[[0,0.5],[1,0.5]];portConstraint=eastwest;labelBackgroundColor=none;" parent="qD7VDa8J_AhCRNE9viBT-102" vertex="1">
          <mxGeometry y="130" width="140" height="26" as="geometry" />
        </mxCell>
        <mxCell id="qD7VDa8J_AhCRNE9viBT-110" value="+ sequential()" style="text;strokeColor=none;fillColor=none;align=left;verticalAlign=top;spacingLeft=4;spacingRight=4;overflow=hidden;rotatable=0;points=[[0,0.5],[1,0.5]];portConstraint=eastwest;labelBackgroundColor=none;" parent="qD7VDa8J_AhCRNE9viBT-102" vertex="1">
          <mxGeometry y="156" width="140" height="26" as="geometry" />
        </mxCell>
        <mxCell id="qD7VDa8J_AhCRNE9viBT-54" value="DQ_CooperativeDualTaskSpace" style="swimlane;fontStyle=0;childLayout=stackLayout;horizontal=1;startSize=26;fillColor=none;horizontalStack=0;resizeParent=1;resizeParentMax=0;resizeLast=0;collapsible=1;marginBottom=0;labelBackgroundColor=none;" parent="1" vertex="1">
          <mxGeometry x="9" y="9.5" width="210" height="234" as="geometry">
            <mxRectangle x="35" width="210" height="26" as="alternateBounds" />
          </mxGeometry>
        </mxCell>
        <mxCell id="qD7VDa8J_AhCRNE9viBT-55" value="+ absolute_pose()" style="text;strokeColor=none;fillColor=none;align=left;verticalAlign=top;spacingLeft=4;spacingRight=4;overflow=hidden;rotatable=0;points=[[0,0.5],[1,0.5]];portConstraint=eastwest;" parent="qD7VDa8J_AhCRNE9viBT-54" vertex="1">
          <mxGeometry y="26" width="210" height="26" as="geometry" />
        </mxCell>
        <mxCell id="qD7VDa8J_AhCRNE9viBT-56" value="+ absolute_pose_jacobian()" style="text;strokeColor=none;fillColor=none;align=left;verticalAlign=top;spacingLeft=4;spacingRight=4;overflow=hidden;rotatable=0;points=[[0,0.5],[1,0.5]];portConstraint=eastwest;" parent="qD7VDa8J_AhCRNE9viBT-54" vertex="1">
          <mxGeometry y="52" width="210" height="26" as="geometry" />
        </mxCell>
        <mxCell id="qD7VDa8J_AhCRNE9viBT-62" value="+ pose1()" style="text;strokeColor=none;fillColor=none;align=left;verticalAlign=top;spacingLeft=4;spacingRight=4;overflow=hidden;rotatable=0;points=[[0,0.5],[1,0.5]];portConstraint=eastwest;labelBackgroundColor=none;" parent="qD7VDa8J_AhCRNE9viBT-54" vertex="1">
          <mxGeometry y="78" width="210" height="26" as="geometry" />
        </mxCell>
        <mxCell id="qD7VDa8J_AhCRNE9viBT-63" value="+ pose2()" style="text;strokeColor=none;fillColor=none;align=left;verticalAlign=top;spacingLeft=4;spacingRight=4;overflow=hidden;rotatable=0;points=[[0,0.5],[1,0.5]];portConstraint=eastwest;labelBackgroundColor=none;" parent="qD7VDa8J_AhCRNE9viBT-54" vertex="1">
          <mxGeometry y="104" width="210" height="26" as="geometry" />
        </mxCell>
        <mxCell id="qD7VDa8J_AhCRNE9viBT-57" value="+ pose_jacobian1()" style="text;strokeColor=none;fillColor=none;align=left;verticalAlign=top;spacingLeft=4;spacingRight=4;overflow=hidden;rotatable=0;points=[[0,0.5],[1,0.5]];portConstraint=eastwest;" parent="qD7VDa8J_AhCRNE9viBT-54" vertex="1">
          <mxGeometry y="130" width="210" height="26" as="geometry" />
        </mxCell>
        <mxCell id="qD7VDa8J_AhCRNE9viBT-64" value="+ pose_jacobian2()" style="text;strokeColor=none;fillColor=none;align=left;verticalAlign=top;spacingLeft=4;spacingRight=4;overflow=hidden;rotatable=0;points=[[0,0.5],[1,0.5]];portConstraint=eastwest;labelBackgroundColor=none;" parent="qD7VDa8J_AhCRNE9viBT-54" vertex="1">
          <mxGeometry y="156" width="210" height="26" as="geometry" />
        </mxCell>
        <mxCell id="qD7VDa8J_AhCRNE9viBT-66" value="+ relative_pose()" style="text;strokeColor=none;fillColor=none;align=left;verticalAlign=top;spacingLeft=4;spacingRight=4;overflow=hidden;rotatable=0;points=[[0,0.5],[1,0.5]];portConstraint=eastwest;labelBackgroundColor=none;" parent="qD7VDa8J_AhCRNE9viBT-54" vertex="1">
          <mxGeometry y="182" width="210" height="26" as="geometry" />
        </mxCell>
        <mxCell id="qD7VDa8J_AhCRNE9viBT-65" value="+ relative_pose_jacobian()" style="text;strokeColor=none;fillColor=none;align=left;verticalAlign=top;spacingLeft=4;spacingRight=4;overflow=hidden;rotatable=0;points=[[0,0.5],[1,0.5]];portConstraint=eastwest;labelBackgroundColor=none;" parent="qD7VDa8J_AhCRNE9viBT-54" vertex="1">
          <mxGeometry y="208" width="210" height="26" as="geometry" />
        </mxCell>
        <mxCell id="qD7VDa8J_AhCRNE9viBT-98" value="2" style="text;html=1;resizable=0;points=[];autosize=1;align=left;verticalAlign=top;spacingTop=-4;" parent="1" vertex="1">
          <mxGeometry x="114" y="282" width="20" height="20" as="geometry" />
        </mxCell>
        <mxCell id="qD7VDa8J_AhCRNE9viBT-111" value="" style="endArrow=block;endSize=16;endFill=0;html=1;strokeWidth=1;edgeStyle=elbowEdgeStyle;" parent="1" source="qD7VDa8J_AhCRNE9viBT-102" target="qD7VDa8J_AhCRNE9viBT-6" edge="1">
          <mxGeometry width="160" relative="1" as="geometry">
            <mxPoint x="99" y="286" as="sourcePoint" />
            <mxPoint x="-121" y="826" as="targetPoint" />
            <Array as="points">
              <mxPoint x="240" y="510" />
            </Array>
          </mxGeometry>
        </mxCell>
        <mxCell id="qD7VDa8J_AhCRNE9viBT-112" value="" style="endArrow=diamondThin;endFill=0;endSize=24;html=1;strokeWidth=1;edgeStyle=elbowEdgeStyle;" parent="1" source="qD7VDa8J_AhCRNE9viBT-24" target="qD7VDa8J_AhCRNE9viBT-102" edge="1">
          <mxGeometry width="160" relative="1" as="geometry">
            <mxPoint x="9" y="776" as="sourcePoint" />
            <mxPoint x="589" y="566" as="targetPoint" />
          </mxGeometry>
        </mxCell>
        <mxCell id="qD7VDa8J_AhCRNE9viBT-113" value="0..*" style="text;html=1;resizable=0;points=[];autosize=1;align=left;verticalAlign=top;spacingTop=-4;" parent="1" vertex="1">
          <mxGeometry x="405" y="542" width="30" height="20" as="geometry" />
        </mxCell>
        <mxCell id="qD7VDa8J_AhCRNE9viBT-114" value="0..*" style="text;html=1;resizable=0;points=[];autosize=1;align=left;verticalAlign=top;spacingTop=-4;" parent="1" vertex="1">
          <mxGeometry x="405" y="477" width="30" height="20" as="geometry" />
        </mxCell>
        <mxCell id="qD7VDa8J_AhCRNE9viBT-115" value="" style="endArrow=diamondThin;endFill=0;endSize=24;html=1;strokeWidth=1;edgeStyle=elbowEdgeStyle;elbow=vertical;" parent="1" source="qD7VDa8J_AhCRNE9viBT-16" target="qD7VDa8J_AhCRNE9viBT-102" edge="1">
          <mxGeometry width="160" relative="1" as="geometry">
            <mxPoint x="9" y="776" as="sourcePoint" />
            <mxPoint x="379" y="716" as="targetPoint" />
          </mxGeometry>
        </mxCell>
        <mxCell id="qD7VDa8J_AhCRNE9viBT-116" value="0..*&lt;br&gt;" style="text;html=1;resizable=0;points=[];autosize=1;align=left;verticalAlign=top;spacingTop=-4;" parent="1" vertex="1">
          <mxGeometry x="282" y="667" width="30" height="20" as="geometry" />
        </mxCell>
        <mxCell id="qD7VDa8J_AhCRNE9viBT-117" value="0..*" style="text;html=1;resizable=0;points=[];autosize=1;align=left;verticalAlign=top;spacingTop=-4;" parent="1" vertex="1">
          <mxGeometry x="189" y="667" width="30" height="20" as="geometry" />
        </mxCell>
      </root>
    </mxGraphModel>
  </diagram>
</mxfile>
